<svg xmlns="http://www.w3.org/2000/svg" width="934.111" height="298.693"><defs><filter color-interpolation-filters="sRGB" id="a"><feFlood flood-opacity=".3" flood-color="#000" result="flood"/><feComposite in2="SourceGraphic" in="flood" operator="in" result="composite1"/><feGaussianBlur stdDeviation="2" result="blur"/><feOffset result="offset"/><feComposite in2="offset" in="SourceGraphic" result="composite2"/></filter><filter color-interpolation-filters="sRGB" id="b"><feFlood flood-opacity=".3" flood-color="#000" result="flood"/><feComposite in2="SourceGraphic" in="flood" operator="in" result="composite1"/><feGaussianBlur stdDeviation="2" result="blur"/><feOffset result="offset"/><feComposite in2="offset" in="SourceGraphic" result="composite2"/></filter></defs><g fill="#486583"><path style="text-indent:0;text-align:start;line-height:normal;text-transform:none;block-progression:tb" d="M-422.42-585.815c-31.777.02-58.41 23.158-63.372 53.89-14.455 4.458-24.756 17.763-24.757 33.19v.02c.008 1.997.317 3.963.664 5.918-25.775 3.436-45.89 25.18-45.89 51.734 0 28.933 23.8 52.435 52.878 52.435h.066c1.044-.01 2.08-.143 3.12-.215.738.282 1.52.427 2.308.428h200.825c.895 0 1.778-.188 2.596-.55 30.663-1.948 55.05-27.12 55.068-57.952v-.01c-.03-28.068-20.373-51.768-47.79-56.98-10.297-18.51-29.866-30.2-51.31-30.222h-.022c-7.123.017-14.122 1.41-20.732 3.903-4.183-31.307-31.027-55.59-63.647-55.59h-.003z" color="#000" overflow="visible" filter="url(#a)" enable-background="accumulate" font-family="sans-serif" transform="translate(1141.34 665.556)"/><path d="M-722.42-645.815c-31.777.02-58.41 23.158-63.372 53.89-14.455 4.458-24.756 17.763-24.757 33.19v.02c.008 1.997.317 3.963.664 5.918-25.775 3.436-45.89 25.18-45.89 51.734 0 28.933 23.8 52.435 52.878 52.435h.066c1.044-.01 2.08-.143 3.12-.215.738.282 1.52.427 2.308.428h200.825c.895 0 1.778-.188 2.596-.55 30.663-1.948 55.05-27.12 55.068-57.952v-.01c-.03-28.068-20.373-51.768-47.79-56.98-10.297-18.51-29.866-30.2-51.31-30.222h-.022c-7.123.017-14.122 1.41-20.732 3.903-4.183-31.307-31.027-55.59-63.647-55.59h-.003z" style="text-indent:0;text-align:start;line-height:normal;text-transform:none;block-progression:tb" color="#000" overflow="visible" filter="url(#a)" enable-background="accumulate" font-family="sans-serif" transform="translate(1141.34 665.556)"/><path d="M-920.763-586.072c-25.518 0-46.32 20.102-47.438 45.344-9.844-6.547-21.636-10.344-34.344-10.344-22.007 0-41.334 11.43-52.375 28.688-31.567 2.1-56.53 28.368-56.53 60.468 0 33.474 27.12 60.594 60.593 60.594 18.973 0 35.918-8.727 47.03-22.375 1.58.102 3.19.156 4.814.156 7.373 0 14.33-1.086 20.5-3 7.57 17.49 24.98 29.75 45.25 29.75 10.264 0 19.796-3.164 27.687-8.532 9.695 11.33 24.077 18.53 40.156 18.53 29.193 0 52.875-23.68 52.875-52.874 0-19.262-10.322-36.105-25.718-45.343.923-3.42 1.406-7.006 1.406-10.718 0-21.134-15.943-38.502-36.47-40.78.03-.688.064-1.37.064-2.064 0-26.233-21.267-47.5-47.5-47.5z" filter="url(#b)" transform="translate(1141.34 665.556)"/></g></svg>