<svg xmlns="http://www.w3.org/2000/svg" width="236.2" height="47.21"><g style="line-height:100%;-inkscape-font-specification:Ubuntu" font-size="40" letter-spacing="-4.74" word-spacing="0" fill="#fff" font-family="DejaVu Sans" font-weight="bold"><path d="M59.096 34.063c-1.51.734-3.077 1.284-4.702 1.65-1.625.368-3.302.55-5.032.55-3.91 0-7.008-1.092-9.293-3.277-2.286-2.186-3.43-5.15-3.43-8.893 0-3.784 1.165-6.76 3.492-8.93s5.514-3.256 9.56-3.257c1.563 0 3.06.147 4.49.44 1.43.294 2.78.73 4.05 1.306v4.86c-1.31-.745-2.614-1.3-3.908-1.668-1.295-.367-2.592-.55-3.892-.55-2.41 0-4.27.673-5.575 2.02-1.305 1.347-1.957 3.274-1.957 5.78 0 2.484.63 4.402 1.887 5.755 1.257 1.35 3.045 2.027 5.362 2.027.628 0 1.212-.04 1.752-.118.54-.08 1.025-.203 1.455-.37v-4.56H49.66V22.77h9.436zM60.595 12.33h16.338v4.577H66.65v4.372h9.67v4.574h-9.67v5.378h10.63v4.576H60.594zM89.518 16.294c-1.845 0-3.276.68-4.293 2.044-1.017 1.363-1.525 3.28-1.525 5.755 0 2.464.508 4.377 1.525 5.74 1.017 1.363 2.448 2.044 4.293 2.044 1.855 0 3.292-.68 4.308-2.044 1.017-1.363 1.526-3.276 1.526-5.74 0-2.474-.51-4.392-1.526-5.755-1.016-1.363-2.453-2.044-4.308-2.044zm0-4.388c3.774 0 6.73 1.08 8.87 3.24 2.137 2.16 3.207 5.142 3.207 8.947 0 3.795-1.07 6.772-3.208 8.932-2.14 2.16-5.095 3.24-8.87 3.24-3.763 0-6.716-1.08-8.86-3.24-2.144-2.16-3.216-5.137-3.216-8.932 0-3.805 1.073-6.788 3.217-8.947 2.144-2.16 5.097-3.24 8.86-3.24z" style="line-height:100%;-inkscape-font-specification:DejaVu Sans Bold"/></g><path d="M113.217 22.717c1.373 0 2.414-.32 3.12-.96.71-.64 1.063-1.577 1.063-2.814 0-.776-.244-1.344-.73-1.706-.49-.362-1.257-.542-2.305-.543h-2.5l-1.195 6.023zm-3.35 4.183l-1.745 8.884h-6.054l4.576-23.477h8.948c2.578 0 4.534.483 5.865 1.447 1.33.964 1.997 2.385 1.997 4.26 0 1.9-.524 3.46-1.573 4.687-1.047 1.228-2.467 1.93-4.26 2.11.818.166 1.5.583 2.044 1.25.545.664 1.022 1.684 1.43 3.057l1.998 6.667h-6.022l-1.762-5.833c-.356-1.163-.788-1.962-1.297-2.397-.507-.436-1.244-.653-2.208-.653z" style="line-height:100%;-inkscape-font-specification:DejaVu Sans Bold Oblique Semi-Condensed" font-size="40" font-style="oblique" font-weight="bold" font-stretch="semi-condensed" letter-spacing="-4.68" word-spacing="0" fill="#ee5b1c" font-family="DejaVu Sans"/><path d="M142.22 21.93c0-1.844-.417-3.25-1.25-4.213-.834-.965-2.042-1.447-3.625-1.447-2.097 0-3.855.94-5.276 2.823-1.42 1.88-2.13 4.237-2.13 7.068 0 1.804.413 3.204 1.24 4.2.83.995 1.982 1.493 3.46 1.493 1.206 0 2.278-.254 3.216-.762.938-.508 1.738-1.26 2.398-2.256.63-.954 1.114-2.028 1.455-3.224.34-1.195.51-2.42.51-3.68zm-3.994-10.047c3.124 0 5.637.867 7.54 2.602 1.902 1.735 2.854 4.002 2.854 6.8 0 1.91-.29 3.712-.873 5.41-.582 1.7-1.428 3.224-2.54 4.576-1.362 1.668-2.974 2.913-4.835 3.736-1.86.823-4.007 1.235-6.44 1.235-3.113 0-5.618-.864-7.516-2.594-1.897-1.73-2.846-4-2.846-6.81 0-1.917.288-3.726.865-5.424.577-1.698 1.426-3.23 2.547-4.592 1.342-1.656 2.944-2.893 4.804-3.71 1.86-.818 4.008-1.227 6.44-1.227z" style="line-height:100%;-inkscape-font-specification:Ubuntu" font-size="41.971" letter-spacing="-2.17" word-spacing="0" fill="#ee5b1c" font-family="Ubuntu"/><path d="M167.535 34.684c-1.447.513-2.836.9-4.167 1.163-1.33.262-2.595.394-3.79.394-3.155 0-5.676-.864-7.563-2.594-1.887-1.73-2.83-4.02-2.83-6.872 0-1.876.298-3.645.896-5.307.598-1.662 1.48-3.18 2.642-4.552 1.374-1.615 3.027-2.857 4.962-3.727 1.934-.87 4.017-1.305 6.25-1.305 1.216 0 2.437.144 3.664.432 1.227.288 2.474.726 3.743 1.313l-.974 4.86c-1.007-.766-2.018-1.327-3.035-1.683-1.016-.357-2.106-.535-3.27-.535-2.422 0-4.45.933-6.086 2.8-1.635 1.865-2.453 4.198-2.453 6.997 0 1.803.505 3.218 1.51 4.245 1.007 1.028 2.396 1.54 4.168 1.54 1.06 0 2.183-.19 3.373-.573 1.19-.383 2.525-.983 4.003-1.8z" style="line-height:100%;-inkscape-font-specification:Ubuntu" font-size="41.971" letter-spacing="-4.13" word-spacing="0" fill="#ee5b1c" font-family="Ubuntu"/><path d="M173.598 12.307h6.054l-1.65 8.445 9.984-8.445h7.312l-13.46 11.4 10.142 12.077h-7.107l-7.894-9.796-1.904 9.796h-6.054z" style="line-height:100%;-inkscape-font-specification:Ubuntu" font-size="41.971" letter-spacing="-2.15" word-spacing="0" fill="#ee5b1c" font-family="Ubuntu"/><path d="M196.838 12.307h16.322l-.896 4.576h-10.268l-.85 4.372h9.67l-.91 4.576h-9.656l-1.038 5.38h10.6l-.866 4.574h-16.684zM214.563 12.307H236.2l-.896 4.576h-7.8l-3.68 18.9h-6.053l3.68-18.9h-7.8z" style="line-height:100%;-inkscape-font-specification:Ubuntu" font-size="41.971" letter-spacing="-7.26" word-spacing="0" fill="#ee5b1c" font-family="Ubuntu"/><g transform="matrix(.3808 .2139 -.21403 .38317 18.485 -199.644)"><path d="M242.853 467.55s7.08-2.01 10.714-2.01c3.633 0 10.714 2.01 10.714 2.01l6 12.715s-10.22 10-16.713 10-16.714-10-16.714-10z" fill="#ee5b1c"/><path d="M242.71 465.516s-7.347-24.012-7.57-36.404c-.152-8.383 1.557-16.848 4.23-24.794 2.437-7.243 5.947-13.92 10.59-20.333.875-1.21 2.114-2.658 3.608-2.658 1.494 0 2.732 1.448 3.608 2.658 4.642 6.412 8.152 13.09 10.59 20.333 2.672 7.946 4.104 16.41 4.23 24.794.117 7.863-1.207 15.987-3.272 23.366-2.064 7.38-4.3 13.038-4.3 13.038s-7.177-2-10.856-2c-3.68 0-10.857 2-10.857 2z" fill="#fff" stroke="#000" stroke-width="2.574"/><circle r="7.893" cy="410.052" cx="253.567" fill="#ee5b1c"/><path d="M273.086 448.983s10.728 5.708 12.635 10.943c2.964 8.135-4.097 25.65-4.097 25.65-1.96-9.982-6.877-16.033-14.008-18.604 2.604-7.925 4.617-13.857 5.47-17.99zM234.383 448.983s-10.728 5.708-12.635 10.943c-2.964 8.135 4.098 25.65 4.098 25.65 1.96-9.982 6.877-16.033 14.008-18.604-2.604-7.925-4.617-13.857-5.47-17.99z" fill="#fff" stroke="#000" stroke-width="2.574" stroke-linecap="round" stroke-linejoin="round"/><path d="M253.567 447.873v37.452" fill="none" stroke="#000" stroke-width="2.574" stroke-linecap="round"/></g></svg>