<svg xmlns="http://www.w3.org/2000/svg" width="192.407" height="96.416"><defs><filter color-interpolation-filters="sRGB" id="a"><feFlood flood-opacity=".3" flood-color="#000" result="flood"/><feComposite in2="SourceGraphic" operator="in" in="flood" result="composite1"/><feGaussianBlur stdDeviation="2" result="blur"/><feOffset result="offset"/><feComposite in2="offset" in="SourceGraphic" result="composite2"/></filter></defs><path d="M281.468 7.26c-25.518 0-46.32 20.102-47.438 45.344-9.844-6.547-21.635-10.344-34.344-10.344-22.006 0-41.333 11.43-52.375 28.687-31.566 2.102-56.53 28.37-56.53 60.47 0 9.156 2.054 17.843 5.688 25.624h293.125c.07-1.11.094-2.247.094-3.374 0-19.263-10.323-36.106-25.72-45.345.924-3.42 1.407-7.005 1.407-10.717 0-21.134-15.942-38.503-36.468-40.782.03-.685.062-1.367.062-2.06 0-26.235-21.266-47.5-47.5-47.5z" transform="matrix(.5771 0 0 .5771 -42.435 .8)" fill="#fff" filter="url(#a)"/><g transform="scale(.7003) rotate(-60 -244.813 270.01)"><path d="M102.853 467.55s7.08-2.01 10.714-2.01c3.633 0 10.714 2.01 10.714 2.01l6 12.715s-10.22 10-16.712 10c-6.493 0-16.714-10-16.714-10z" fill="#ee5b1c"/><path d="M102.71 465.516s-7.347-24.012-7.57-36.404c-.152-8.383 1.557-16.848 4.23-24.794 2.437-7.243 5.947-13.92 10.59-20.333.875-1.21 2.114-2.658 3.608-2.658 1.494 0 2.732 1.448 3.608 2.658 4.642 6.412 8.152 13.09 10.59 20.333 2.672 7.946 4.104 16.41 4.23 24.794.117 7.863-1.207 15.987-3.272 23.366-2.064 7.38-4.3 13.038-4.3 13.038s-7.177-2-10.856-2c-3.68 0-10.857 2-10.857 2z" fill="#fff" stroke="#000" stroke-width="2"/><circle cx="113.567" cy="410.052" r="7.893" fill="#ee5b1c"/><path d="M133.086 448.983s10.728 5.708 12.635 10.943c2.965 8.135-4.096 25.65-4.096 25.65-1.96-9.982-6.877-16.033-14.008-18.604 2.604-7.925 4.617-13.857 5.47-17.99zm-38.703 0s-10.728 5.708-12.635 10.943c-2.964 8.135 4.098 25.65 4.098 25.65 1.96-9.982 6.877-16.033 14.008-18.604-2.604-7.925-4.617-13.857-5.47-17.99z" fill="#fff" stroke="#000" stroke-width="2" stroke-linecap="round" stroke-linejoin="round"/><path d="M113.567 447.873v37.452" fill="none" stroke="#000" stroke-width="2" stroke-linecap="round"/></g><path d="M98.33 32.217l16.806 9.704" fill="none" stroke="gray" stroke-dasharray="3, 1"/><path d="M90.33 50.217l25.124 14.704" fill="none" stroke="gray" stroke-dasharray="2.99999995, 0.99999998"/><path d="M78.33 66.217l16.806 9.704" fill="none" stroke="gray" stroke-dasharray="3, 1"/></svg>