<svg xmlns="http://www.w3.org/2000/svg" width="171.714" height="95.071"><path d="M82.105 33.39s2.75-2.578 4.474-2.578c1.723 0 4.474 2.58 4.474 2.58v5.504h-8.95z" fill="#ee5b1c"/><path d="M98.002 38.933c.076 5.096-.782 10.36-2.12 15.14-1.338 4.782-2.786 8.448-2.786 8.448s-4.65-1.294-7.035-1.294c-2.383 0-7.033 1.295-7.033 1.295s-4.762-15.557-4.906-23.587z" fill="none" stroke="#000" stroke-width="1.29592"/><g transform="scale(.64796) rotate(-45 -320.114 211.133)"><path d="M127.765 384.318c2.673 7.946 4.105 16.41 4.23 24.794H95.14c-.152-8.383 1.557-16.848 4.23-24.794m0 0c2.437-7.243 5.947-13.92 10.59-20.333.875-1.21 2.114-2.658 3.608-2.658 1.494 0 2.732 1.448 3.608 2.658 4.642 6.412 8.152 13.09 10.59 20.333" fill="none" stroke="#000" stroke-width="2"/><circle cx="113.567" cy="390.052" r="7.893" fill="#ee5b1c"/></g><path d="M98.708 51.81s6.952 3.697 8.187 7.09c1.92 5.27-2.655 16.62-2.655 16.62-1.27-6.468-4.456-10.39-9.077-12.055 1.688-5.135 2.992-8.98 3.545-11.656zM73.63 51.81s-6.95 3.697-8.187 7.09c-1.92 5.27 2.655 16.62 2.655 16.62 1.272-6.468 4.457-10.39 9.078-12.055-1.688-5.135-2.993-8.98-3.546-11.656z" fill="none" stroke="#000" stroke-width="1.29592" stroke-linecap="round" stroke-linejoin="round"/><path d="M86.06 51.09v24.267M81.915 62.188l-7.26 12.53M90.206 62.188l7.26 12.53" fill="none" stroke="#000" stroke-width="1.29592" stroke-linecap="round"/><path d="M.5 93c59.883-24.326 116.543-22.324 170.714 0" fill="none" stroke="gray"/></svg>