<svg xmlns="http://www.w3.org/2000/svg" width="1280" height="720"><path fill="#0d1217" d="M0 0h1280v720H0z"/><path d="M323.33 277.772l.878 1.782 1.967.285-1.423 1.387.336 1.958-1.76-.925-1.758.925.336-1.958-1.423-1.388 1.966-.286zM440.34 197.97l.88 1.782 1.967.285-1.423 1.388.336 1.958-1.76-.925-1.758.925.336-1.958-1.423-1.388 1.967-.285zM415.933 648.904l.88 1.782 1.966.286-1.424 1.387.336 1.957-1.76-.924-1.758.924.336-1.958-1.424-1.388 1.967-.286zM468.718 473.944l.88 1.782 1.966.286-1.423 1.387.337 1.958-1.76-.925-1.758.925.335-1.96-1.423-1.386 1.967-.286zM363.92 113.117l.88 1.782 1.966.285-1.423 1.387.336 1.958-1.76-.924-1.76.924.337-1.958-1.424-1.387 1.967-.286zM193.46 322.218l.88 1.782 1.967.286-1.423 1.387.336 1.96-1.76-.926-1.758.925.336-1.96-1.423-1.386 1.967-.286zM127.05 634.762l.878 1.782 1.967.285-1.423 1.387.336 1.958-1.76-.925-1.758.925.336-1.958-1.423-1.388 1.966-.286zM1205.14 367.675l.878 1.782 1.967.286-1.423 1.387.336 1.96-1.76-.926-1.758.925.336-1.96-1.423-1.387 1.966-.286zM680.117 613.548l.88 1.782 1.966.286-1.423 1.387.336 1.96-1.76-.926-1.758.925.336-1.96-1.423-1.386 1.968-.286zM725.83 424.447l.88 1.782 1.968.285-1.423 1.387.335 1.958-1.76-.924-1.758.924.336-1.958-1.423-1.387 1.967-.286zM801.85 598.396l.88 1.782 1.966.286-1.423 1.387.336 1.96-1.76-.925-1.76.925.337-1.96-1.423-1.386 1.967-.286zM889.734 579.203l.88 1.782 1.966.286-1.423 1.388.336 1.96-1.76-.926-1.758.925.336-1.96-1.423-1.386 1.967-.285z" fill="#b6b6b6"/><path d="M120.734 459.4l1.642 3.328 3.67.533-2.655 2.59.628 3.657-3.284-1.727-3.283 1.727.628-3.657-2.656-2.59 3.67-.532zM346.835 394.75l1.64 3.328 3.672.533-2.656 2.59.628 3.657-3.283-1.726-3.284 1.727.628-3.656-2.656-2.59 3.67-.532zM153.722 141l1.64 3.326 3.673.534-2.657 2.59.627 3.655-3.283-1.726-3.284 1.725.627-3.656-2.656-2.59 3.67-.534zM626.212 221.812l1.642 3.327 3.67.532-2.655 2.59.626 3.656-3.284-1.727-3.283 1.728.626-3.657-2.656-2.588 3.67-.533zM700.703 494.96l1.642 3.326 3.67.533-2.656 2.59.626 3.655-3.283-1.726-3.283 1.725.627-3.656-2.657-2.59 3.67-.534zM883.28 562.64l1.642 3.326 3.67.534-2.656 2.59.627 3.655-3.283-1.726-3.284 1.725.627-3.656-2.656-2.59 3.67-.534zM1039.593 202.62l1.642 3.326 3.67.533-2.656 2.59.626 3.655-3.283-1.726-3.284 1.725.626-3.656-2.656-2.59 3.67-.534zM969.632 413.944l1.64 3.327 3.672.534-2.656 2.59.627 3.656-3.283-1.727-3.284 1.727.627-3.657-2.656-2.59 3.67-.532zM1102.71 603.046l1.643 3.326 3.67.534-2.656 2.59.627 3.655-3.283-1.725-3.283 1.726.628-3.655-2.657-2.59 3.67-.533zM1032.75 388.487l1.64 3.327 3.672.533-2.656 2.59.627 3.656-3.283-1.726-3.284 1.726.627-3.656-2.656-2.59 3.67-.533zM1147.646 484.858l1.642 3.326 3.67.534-2.655 2.59.627 3.655-3.284-1.726-3.283 1.726.627-3.656-2.656-2.59 3.67-.533zM1136.535 451.523l1.64 3.326 3.672.533-2.656 2.59.628 3.655-3.283-1.726-3.284 1.726.628-3.656-2.656-2.59 3.67-.533z" fill="#737373"/><path d="M221.36 325.457l1.522 3.083 3.402.494-2.462 2.4.58 3.388-3.042-1.6-3.043 1.6.582-3.388-2.463-2.4 3.402-.494zM824.303 242.624l1.522 3.083 3.402.494-2.462 2.4.58 3.39-3.042-1.6-3.043 1.6.58-3.39-2.46-2.4 3.402-.493zM693.875 634.97l1.522 3.082 3.402.495-2.463 2.4.58 3.388-3.042-1.6-3.043 1.6.582-3.39-2.462-2.398 3.402-.495zM689.657 431.726l1.522 3.083 3.4.493-2.46 2.4.58 3.388-3.043-1.6-3.042 1.6.58-3.387-2.46-2.4 3.4-.494zM593.516 255.756l1.52 3.083 3.403.493-2.463 2.4.58 3.388-3.04-1.598-3.044 1.6.58-3.39-2.46-2.4 3.4-.493zM297.364 602.645l1.52 3.083 3.403.494-2.462 2.4.58 3.388-3.04-1.6-3.044 1.6.582-3.39-2.462-2.398 3.402-.494zM992.17 609.716l1.523 3.083 3.402.493-2.462 2.4.58 3.388-3.042-1.6-3.042 1.6.582-3.388-2.462-2.4 3.402-.493zM383.882 81l1.522 3.083 3.402.494-2.462 2.4.58 3.388-3.042-1.6-3.043 1.6.58-3.388-2.46-2.4 3.4-.494zM113.994 601.635l1.52 3.082 3.403.495-2.46 2.4.58 3.387-3.043-1.6-3.043 1.6.582-3.39-2.46-2.398 3.4-.495zM1112.858 273.94l1.52 3.082 3.403.494-2.46 2.4.58 3.388-3.042-1.6-3.043 1.6.58-3.388-2.46-2.4 3.4-.494zM1091.467 444.858l1.522 3.083 3.4.495-2.46 2.4.58 3.388-3.043-1.6-3.043 1.6.58-3.388-2.46-2.4 3.402-.494zM923.782 83.02l1.52 3.083 3.403.494-2.46 2.4.58 3.388-3.043-1.6-3.043 1.6.58-3.388-2.462-2.4 3.402-.494z" fill="#fff"/><path d="M450.66 479.005l1.208 2.447 2.7.393-1.954 1.905.46 2.69-2.414-1.27-2.416 1.27.462-2.69-1.954-1.905 2.7-.393zM173.472 129.086l1.208 2.447 2.7.393-1.954 1.905.46 2.69-2.414-1.27-2.415 1.27.46-2.69-1.953-1.904 2.7-.393zM377.117 376.777l1.207 2.447 2.7.392-1.953 1.905.462 2.69-2.415-1.27-2.416 1.27.463-2.69-1.955-1.904 2.7-.392zM275.492 235.152l1.208 2.447 2.7.392-1.954 1.905.462 2.69-2.416-1.27-2.415 1.27.46-2.69-1.953-1.905 2.7-.393zM599.142 523.452l1.208 2.447 2.7.39-1.954 1.906.462 2.69-2.416-1.27-2.415 1.27.46-2.69-1.953-1.905 2.7-.39zM704.6 408.09l1.207 2.45 2.7.39-1.954 1.906.46 2.69-2.414-1.27-2.416 1.27.46-2.69-1.953-1.905 2.7-.39zM798.944 156.36l1.208 2.448 2.7.392-1.954 1.905.462 2.69-2.416-1.27-2.415 1.27.46-2.69-1.954-1.905 2.7-.392zM642.772 82.62l1.207 2.446 2.7.393-1.954 1.904.46 2.69-2.414-1.27-2.416 1.27.46-2.69-1.953-1.905 2.7-.394zM778.533 128.076l1.208 2.447 2.7.393-1.953 1.904.46 2.69-2.414-1.27-2.415 1.27.46-2.69-1.953-1.904 2.7-.393zM1028.442 187.675l1.207 2.447 2.7.393-1.954 1.904.46 2.69-2.414-1.27-2.416 1.27.462-2.69-1.955-1.905 2.7-.393zM842.975 375.564l1.207 2.447 2.7.393-1.953 1.905.46 2.69-2.415-1.27-2.416 1.27.46-2.69-1.954-1.905 2.7-.392zM458.112 241.213l1.207 2.447 2.7.393-1.954 1.905.46 2.69-2.414-1.27-2.416 1.27.46-2.69-1.953-1.905 2.7-.393z" fill="#8b8b8b"/></svg>