<svg xmlns="http://www.w3.org/2000/svg" width="167.856" height="273.544"><g transform="translate(-199.026 -946.16) scale(2.48785)"><path d="M102.853 467.55s7.08-2.01 10.714-2.01c3.633 0 10.714 2.01 10.714 2.01l6 12.715s-10.22 10-16.713 10-16.714-10-16.714-10z" fill="#ee5b1c"/><path d="M102.71 465.516s-7.347-24.012-7.57-36.404c-.152-8.383 1.557-16.848 4.23-24.794 2.437-7.243 5.947-13.92 10.59-20.333.875-1.21 2.114-2.658 3.608-2.658 1.494 0 2.732 1.448 3.608 2.658 4.642 6.412 8.152 13.09 10.59 20.333 2.672 7.946 4.104 16.41 4.23 24.794.117 7.863-1.207 15.987-3.272 23.366-2.064 7.38-4.3 13.038-4.3 13.038s-7.177-2-10.856-2c-3.68 0-10.857 2-10.857 2z" fill="#fff" stroke="#000" stroke-width="2"/><circle cx="113.567" cy="410.052" r="7.893" fill="#ee5b1c"/><path d="M133.086 448.983s10.728 5.708 12.635 10.943c2.964 8.135-4.097 25.65-4.097 25.65-1.96-9.982-6.877-16.033-14.008-18.604 2.604-7.925 4.617-13.857 5.47-17.99zM94.383 448.983s-10.728 5.708-12.635 10.943c-2.964 8.135 4.098 25.65 4.098 25.65 1.96-9.982 6.877-16.033 14.008-18.604-2.604-7.925-4.617-13.857-5.47-17.99z" fill="#fff" stroke="#000" stroke-width="2" stroke-linecap="round" stroke-linejoin="round"/><path d="M113.567 447.873v37.452" fill="none" stroke="#000" stroke-width="2" stroke-linecap="round"/></g></svg>