<svg xmlns="http://www.w3.org/2000/svg" width="171.714" height="75.07"><path d="M70.35 27.184a3.298 3.298 0 1 1-6.595 0 3.298 3.298 0 1 1 6.596 0z" fill="#ee5b1c"/><path d="M123.59 26.972H73.815" fill="none" stroke="#000" stroke-dasharray="2.00000014, 2.00000014"/><g transform="matrix(0 -.66392 -.66392 0 330.713 127.045)"><path d="M102.853 467.55s7.08-2.01 10.714-2.01c3.633 0 10.714 2.01 10.714 2.01l6 12.715s-10.22 10-16.71 10c-6.494 0-16.715-10-16.715-10z" fill="#ee5b1c"/><path d="M102.71 465.516s-7.347-24.012-7.57-36.404c-.152-8.383 1.557-16.848 4.23-24.794 2.437-7.243 5.947-13.92 10.59-20.333.875-1.21 2.114-2.658 3.608-2.658 1.494 0 2.732 1.448 3.608 2.658 4.642 6.412 8.152 13.09 10.59 20.333 2.672 7.946 4.104 16.41 4.23 24.794.117 7.863-1.207 15.987-3.272 23.366-2.064 7.38-4.3 13.038-4.3 13.038s-7.177-2-10.856-2c-3.68 0-10.857 2-10.857 2z" fill="#fff" stroke="#000" stroke-width="2"/><circle cx="113.567" cy="410.052" r="7.893" fill="#ee5b1c"/><path d="M133.086 448.983s10.728 5.708 12.635 10.943c2.966 8.135-4.095 25.65-4.095 25.65-1.96-9.982-6.877-16.033-14.008-18.604 2.604-7.925 4.617-13.857 5.47-17.99zm-38.703 0s-10.728 5.708-12.635 10.943c-2.964 8.135 4.098 25.65 4.098 25.65 1.96-9.982 6.877-16.033 14.008-18.604-2.604-7.925-4.617-13.857-5.47-17.99z" fill="#fff" stroke="#000" stroke-width="2" stroke-linecap="round" stroke-linejoin="round"/><path d="M113.567 447.873v37.452" fill="none" stroke="#000" stroke-width="2" stroke-linecap="round"/></g><g fill="#fff" stroke="#4d4d4d" stroke-width=".749"><path d="M77.483 56.294h4.72l3.2 3.052v7.614h-7.92z" stroke-width=".481" transform="matrix(1.33965 0 0 1.32908 25.254 -54.446)"/><path d="M82.183 56.357v3.12h3.215" stroke-width=".317" transform="matrix(1.33965 0 0 1.32908 25.254 -54.446)"/></g><path d="M160.01 27.46a25.65 25.65 0 1 1-51.302 0 25.65 25.65 0 1 1 51.302 0z" fill="none" stroke="gray"/><path d="M50.217 39.75l3.148-11.244 6.446-1.65" fill="none" stroke="#000" stroke-width="1.328"/><path d="M80.947 56.048a6.146 9.944 0 1 1 0-19.888v9.944z" transform="matrix(1 0 0 .84172 -14.793 -11.623)" fill="#fff" stroke="#000" stroke-width="1.447"/></svg>