<svg xmlns="http://www.w3.org/2000/svg" width="1250" height="180"><defs><filter color-interpolation-filters="sRGB" id="b"><feFlood flood-opacity=".3" flood-color="#000" result="flood"/><feComposite in2="SourceGraphic" in="flood" operator="in" result="composite1"/><feGaussianBlur stdDeviation="2" result="blur"/><feOffset result="offset"/><feComposite in2="offset" in="SourceGraphic" result="composite2"/></filter><filter color-interpolation-filters="sRGB" id="a"><feFlood flood-opacity=".3" flood-color="#000" result="flood"/><feComposite in2="SourceGraphic" in="flood" operator="in" result="composite1"/><feGaussianBlur stdDeviation="2" result="blur"/><feOffset result="offset"/><feComposite in2="offset" in="SourceGraphic" result="composite2"/></filter></defs><g fill="#fff"><path style="text-indent:0;text-align:start;line-height:normal;text-transform:none;block-progression:tb" d="M-136.927 171.85c-31.776.022-58.41 23.176-63.375 53.907-14.454 4.458-24.748 17.758-24.75 33.187.006 1.996.31 3.983.657 5.938-9.054 1.206-17.407 4.672-24.438 9.812H33.76C25.2 264.09 12.95 256.447-1.207 253.757c-10.296-18.512-29.87-30.198-51.312-30.22h-.032c-7.123.017-14.108 1.414-20.718 3.907-4.182-31.306-31.037-55.595-63.657-55.594zM-824.802 107.194c-31.776.02-58.41 23.144-63.375 53.875-14.454 4.458-24.748 17.758-24.75 33.187v.03c.007 1.997.31 3.952.657 5.907-25.775 3.436-45.876 25.197-45.875 51.75 0 8.152 1.885 15.864 5.25 22.75h303.937c4.866-8.443 7.65-18.216 7.656-28.625-.03-28.07-20.364-51.758-47.78-56.97-10.297-18.51-29.87-30.197-51.313-30.22-7.124.018-14.14 1.415-20.75 3.908-4.182-31.307-31.037-55.595-63.657-55.594z" color="#000" overflow="visible" filter="url(#a)" enable-background="accumulate" font-family="sans-serif" transform="translate(973.83 -89.444)"/><path style="text-indent:0;text-align:start;line-height:normal;text-transform:none;block-progression:tb" d="M-384.802 125.194c-31.776.02-58.41 23.144-63.375 53.875-14.454 4.458-24.748 17.758-24.75 33.187v.03c.007 1.997.31 3.952.657 5.907-25.775 3.436-45.876 25.197-45.875 51.75 0 1.606.075 3.18.218 4.75h315.657c.645-3.438.966-7.002.968-10.625-.03-28.07-20.364-51.758-47.78-56.97-10.297-18.51-29.87-30.197-51.313-30.22-7.124.018-14.14 1.415-20.75 3.908-4.182-31.307-31.037-55.595-63.657-55.594z" color="#000" overflow="visible" filter="url(#a)" enable-background="accumulate" font-family="sans-serif" transform="translate(973.83 -89.444)"/><path d="M-583.145 184.913c-25.518 0-46.32 20.102-47.438 45.344-9.844-6.547-21.635-10.344-34.344-10.344-22.006 0-41.333 11.43-52.375 28.687-19.004 1.266-35.6 11.312-45.812 26.094h263.875c-.28-20.878-16.125-37.96-36.468-40.22.03-.685.063-1.367.063-2.06 0-26.235-21.267-47.5-47.5-47.5zM156.855 124.913c-25.518 0-46.32 20.102-47.438 45.344-9.844-6.547-21.635-10.344-34.344-10.344-22.006 0-41.333 11.43-52.375 28.687-31.567 2.102-56.53 28.37-56.53 60.47 0 9.156 2.053 17.843 5.687 25.624H264.98c.07-1.11.094-2.248.094-3.375 0-19.263-10.323-36.106-25.72-45.345.924-3.42 1.407-7.006 1.407-10.718 0-21.134-15.942-38.503-36.468-40.782.03-.686.062-1.368.062-2.062 0-26.234-21.266-47.5-47.5-47.5z" filter="url(#b)" transform="translate(973.83 -89.444)"/></g></svg>