<?xml version="1.0" standalone="no"?>
<!DOCTYPE svg PUBLIC "-//W3C//DTD SVG 20010904//EN"
 "http://www.w3.org/TR/2001/REC-SVG-20010904/DTD/svg10.dtd">
<svg version="1.0" xmlns="http://www.w3.org/2000/svg"
 width="29.000000pt" height="39.000000pt" viewBox="0 0 29.000000 39.000000"
 preserveAspectRatio="xMidYMid meet">
<metadata>
Created by potrace 1.11, written by Peter Selinger 2001-2013
</metadata>
<g transform="translate(0.000000,39.000000) scale(0.100000,-0.100000)"
fill="#000000" stroke="none">
<path d="M213 361 c-46 -33 -86 -82 -102 -124 -8 -21 -17 -27 -41 -27 -32 0
-53 -24 -65 -72 -7 -28 3 -36 21 -18 6 6 21 12 33 15 22 4 23 3 6 -15 -32 -36
9 -89 61 -76 18 5 24 13 24 34 l1 27 13 -24 c7 -12 11 -34 8 -47 -5 -29 -1
-30 25 -7 38 34 46 60 29 95 -14 28 -14 32 4 55 42 54 66 200 34 210 -6 2 -29
-10 -51 -26z"/>
</g>
</svg>
